<svg xmlns="http://www.w3.org/2000/svg" xmlns:xlink="http://www.w3.org/1999/xlink" contentStyleType="text/css" data-diagram-type="DESCRIPTION" height="239px" preserveAspectRatio="none" style="width:3510px;height:239px;background:#FFFFFF;" version="1.1" viewBox="0 0 3510 239" width="3510px" zoomAndPan="magnify"><defs/><g><!--entity a--><g class="entity" data-entity="a" data-source-line="2" data-uid="ent0002" id="entity_a"><ellipse cx="55.54" cy="167" fill="#F1F1F1" rx="8" ry="8" style="stroke:#181818;stroke-width:0.5;"/><path d="M55.54,175 L55.54,202 M42.54,183 L68.54,183 M55.54,202 L42.54,217 M55.54,202 L68.54,217" fill="none" style="stroke:#181818;stroke-width:0.5;"/><text fill="#000000" font-family="sans-serif" font-size="14" lengthAdjust="spacing" textLength="99.0801" x="6" y="231.4951">Administrador</text></g><!--entity p--><g class="entity" data-entity="p" data-source-line="3" data-uid="ent0003" id="entity_p"><ellipse cx="1569.6074" cy="167" fill="#F1F1F1" rx="8" ry="8" style="stroke:#181818;stroke-width:0.5;"/><path d="M1569.6074,175 L1569.6074,202 M1556.6074,183 L1582.6074,183 M1569.6074,202 L1556.6074,217 M1569.6074,202 L1582.6074,217" fill="none" style="stroke:#181818;stroke-width:0.5;"/><text fill="#000000" font-family="sans-serif" font-size="14" lengthAdjust="spacing" textLength="65.2148" x="1537" y="231.4951">Professor</text></g><!--entity e--><g class="entity" data-entity="e" data-source-line="4" data-uid="ent0004" id="entity_e"><ellipse cx="2565.4717" cy="167" fill="#F1F1F1" rx="8" ry="8" style="stroke:#181818;stroke-width:0.5;"/><path d="M2565.4717,175 L2565.4717,202 M2552.4717,183 L2578.4717,183 M2565.4717,202 L2552.4717,217 M2565.4717,202 L2578.4717,217" fill="none" style="stroke:#181818;stroke-width:0.5;"/><text fill="#000000" font-family="sans-serif" font-size="14" lengthAdjust="spacing" textLength="70.9434" x="2530" y="231.4951">Estudante</text></g><!--entity user--><g class="entity" data-entity="user" data-source-line="5" data-uid="ent0005" id="entity_user"><ellipse cx="1569.4731" cy="14" fill="#F1F1F1" rx="8" ry="8" style="stroke:#181818;stroke-width:0.5;"/><path d="M1569.4731,22 L1569.4731,49 M1556.4731,30 L1582.4731,30 M1569.4731,49 L1556.4731,64 M1569.4731,49 L1582.4731,64" fill="none" style="stroke:#181818;stroke-width:0.5;"/><text fill="#000000" font-family="sans-serif" font-size="14" lengthAdjust="spacing" textLength="135.9463" x="1501.5" y="78.4951">Usu&#225;rio do Sistema</text></g><!--entity Fazer login--><g class="entity" data-entity="Fazer login" data-source-line="11" data-uid="ent0009" id="entity_Fazer login"><ellipse cx="1730.3795" cy="43.5236" fill="#F1F1F1" rx="57.3795" ry="14.5236" style="stroke:#181818;stroke-width:0.5;"/><text fill="#000000" font-family="sans-serif" font-size="14" lengthAdjust="spacing" textLength="76.9043" x="1691.9274" y="48.1721">Fazer login</text></g><!--entity Cadastrar novo estudante--><g class="entity" data-entity="Cadastrar novo estudante" data-source-line="13" data-uid="ent0011" id="entity_Cadastrar novo estudante"><ellipse cx="1398.4757" cy="196.4951" fill="#F1F1F1" rx="102.9757" ry="22.9951" style="stroke:#181818;stroke-width:0.5;"/><text fill="#000000" font-family="sans-serif" font-size="14" lengthAdjust="spacing" textLength="182.5947" x="1307.1783" y="201.1436">Cadastrar novo estudante</text></g><!--entity Modificar cadastro de estudantes--><g class="entity" data-entity="Modificar cadastro de estudantes" data-source-line="14" data-uid="ent0013" id="entity_Modificar cadastro de estudantes"><ellipse cx="1133.3783" cy="196.2757" fill="#F1F1F1" rx="126.8783" ry="27.7757" style="stroke:#181818;stroke-width:0.5;"/><text fill="#000000" font-family="sans-serif" font-size="14" lengthAdjust="spacing" textLength="233.9736" x="1016.3915" y="200.9241">Modificar cadastro de estudantes</text></g><!--entity Registrar disciplina--><g class="entity" data-entity="Registrar disciplina" data-source-line="15" data-uid="ent0015" id="entity_Registrar disciplina"><ellipse cx="221.5077" cy="196.7015" fill="#F1F1F1" rx="81.5077" ry="18.7015" style="stroke:#181818;stroke-width:0.5;"/><text fill="#000000" font-family="sans-serif" font-size="14" lengthAdjust="spacing" textLength="134.2168" x="154.3993" y="201.35">Registrar disciplina</text></g><!--entity Registrar professor respons?vel--><g class="entity" data-entity="Registrar professor respons.vel" data-source-line="16" data-uid="ent0017" id="entity_Registrar professor respons.vel"><ellipse cx="849.3045" cy="196.2609" fill="#F1F1F1" rx="121.8045" ry="26.7609" style="stroke:#181818;stroke-width:0.5;"/><text fill="#000000" font-family="sans-serif" font-size="14" lengthAdjust="spacing" textLength="223.2002" x="737.7044" y="200.9093">Registrar professor respons&#225;vel</text></g><!--entity Registrar hor?rio e sala das disciplinas--><g class="entity" data-entity="Registrar hor.rio e sala das disciplinas" data-source-line="17" data-uid="ent0019" id="entity_Registrar hor.rio e sala das disciplinas"><ellipse cx="547.4978" cy="196.2996" fill="#F1F1F1" rx="144.4978" ry="31.2996" style="stroke:#181818;stroke-width:0.5;"/><text fill="#000000" font-family="sans-serif" font-size="14" lengthAdjust="spacing" textLength="271.0107" x="411.9924" y="200.948">Registrar hor&#225;rio e sala das disciplinas</text></g><!--entity Cadastrar crit?rios de avalia??o\nde disciplinas--><g class="entity" data-entity="Cadastrar crit.rios de avalia..o.nde disciplinas" data-source-line="21" data-uid="ent0023" id="entity_Cadastrar crit.rios de avalia..o.nde disciplinas"><ellipse cx="2369.3506" cy="196.4701" fill="#F1F1F1" rx="125.3506" ry="27.4701" style="stroke:#181818;stroke-width:0.5;"/><text fill="#000000" font-family="sans-serif" font-size="14" lengthAdjust="spacing" textLength="223.1387" x="2257.7813" y="199.2232">Cadastrar crit&#233;rios de avalia&#231;&#227;o</text><text fill="#000000" font-family="sans-serif" font-size="14" lengthAdjust="spacing" textLength="95.0195" x="2321.8408" y="215.5201">de disciplinas</text></g><!--entity Cadastrar notas de disciplinas--><g class="entity" data-entity="Cadastrar notas de disciplinas" data-source-line="22" data-uid="ent0025" id="entity_Cadastrar notas de disciplinas"><ellipse cx="2092.2873" cy="196.6575" fill="#F1F1F1" rx="116.2873" ry="25.6575" style="stroke:#181818;stroke-width:0.5;"/><text fill="#000000" font-family="sans-serif" font-size="14" lengthAdjust="spacing" textLength="211.415" x="1986.5798" y="201.3059">Cadastrar notas de disciplinas</text></g><!--entity Calcular as notas de disciplinas--><g class="entity" data-entity="Calcular as notas de disciplinas" data-source-line="23" data-uid="ent0027" id="entity_Calcular as notas de disciplinas"><ellipse cx="1757.3416" cy="196.4683" fill="#F1F1F1" rx="120.3416" ry="26.4683" style="stroke:#181818;stroke-width:0.5;"/><text fill="#000000" font-family="sans-serif" font-size="14" lengthAdjust="spacing" textLength="220.083" x="1647.3001" y="201.1168">Calcular as notas de disciplinas</text></g><!--entity Matricular em disciplinas--><g class="entity" data-entity="Matricular em disciplinas" data-source-line="26" data-uid="ent0030" id="entity_Matricular em disciplinas"><ellipse cx="3405.4336" cy="196.2867" fill="#F1F1F1" rx="99.4336" ry="22.2867" style="stroke:#181818;stroke-width:0.5;"/><text fill="#000000" font-family="sans-serif" font-size="14" lengthAdjust="spacing" textLength="174.8086" x="3318.0293" y="200.9352">Matricular em disciplinas</text></g><!--entity Consultar as disciplinas matriculadas--><g class="entity" data-entity="Consultar as disciplinas matriculadas" data-source-line="27" data-uid="ent0032" id="entity_Consultar as disciplinas matriculadas"><ellipse cx="3131.4916" cy="196.2983" fill="#F1F1F1" rx="139.4916" ry="30.2983" style="stroke:#181818;stroke-width:0.5;"/><text fill="#000000" font-family="sans-serif" font-size="14" lengthAdjust="spacing" textLength="260.5381" x="3001.2225" y="200.9468">Consultar as disciplinas matriculadas</text></g><!--entity Visualizar as notas das disciplinas--><g class="entity" data-entity="Visualizar as notas das disciplinas" data-source-line="28" data-uid="ent0034" id="entity_Visualizar as notas das disciplinas"><ellipse cx="2765.2716" cy="196.6543" fill="#F1F1F1" rx="128.7716" ry="28.1543" style="stroke:#181818;stroke-width:0.5;"/><text fill="#000000" font-family="sans-serif" font-size="14" lengthAdjust="spacing" textLength="237.9795" x="2646.2818" y="201.3027">Visualizar as notas das disciplinas</text></g><!--reverse link user to a--><g class="link" data-entity-1="user" data-entity-2="a" data-source-line="7" data-uid="lnk6" id="link_user_a"><path d="M1483.4632,47.6603 C1311.2332,54.2703 862.16,73.81 474.5,111.5 C317.41,126.77 272.39,109.05 122.5,158.5 C116.7,160.41 110.81,162.84 105.07,165.52" fill="none" id="user-backto-a" style="stroke:#181818;stroke-width:1;"/><polygon fill="none" points="1501.45,46.97,1483.2331,41.6647,1483.6933,53.6559,1501.45,46.97" style="stroke:#181818;stroke-width:1;"/></g><!--reverse link user to p--><g class="link" data-entity-1="user" data-entity-2="p" data-source-line="8" data-uid="lnk7" id="link_user_p"><path d="M1569.5,99.83 C1569.5,123.14 1569.5,135.06 1569.5,158.34" fill="none" id="user-backto-p" style="stroke:#181818;stroke-width:1;"/><polygon fill="none" points="1569.5,81.83,1563.5,99.83,1575.5,99.83,1569.5,81.83" style="stroke:#181818;stroke-width:1;"/></g><!--reverse link user to e--><g class="link" data-entity-1="user" data-entity-2="e" data-source-line="9" data-uid="lnk8" id="link_user_e"><path d="M1654.8418,82.042 C1660.7418,84.082 1649.67,80.02 1655.5,81.5 C2026.23,175.35 2153.2,27.54 2512.5,158.5 C2518.4,160.65 2524.26,163.63 2529.81,166.98" fill="none" id="user-backto-e" style="stroke:#181818;stroke-width:1;"/><polygon fill="none" points="1637.83,76.16,1652.8811,87.7126,1656.8025,76.3714,1637.83,76.16" style="stroke:#181818;stroke-width:1;"/></g><!--link user to Fazer login--><g class="link" data-entity-1="user" data-entity-2="Fazer login" data-source-line="11" data-uid="lnk10" id="link_user_Fazer login"><path d="M1637.74,43.5 C1649.45,43.5 1655.17,43.5 1666.89,43.5" fill="none" id="user-to-Fazer login" style="stroke:#181818;stroke-width:1;"/><polygon fill="#181818" points="1672.89,43.5,1663.89,39.5,1667.89,43.5,1663.89,47.5,1672.89,43.5" style="stroke:#181818;stroke-width:1;"/></g><!--link a to Cadastrar novo estudante--><g class="link" data-entity-1="a" data-entity-2="Cadastrar novo estudante" data-source-line="13" data-uid="lnk12" id="link_a_Cadastrar novo estudante"><path d="M86.39,158.28 C100.9,143.33 119.5,127.9 140,120 C256.12,75.25 1139.5,88.93 1260,120 C1300.7,130.49 1337.2931,152.3458 1364.1131,170.9858" fill="none" id="a-to-Cadastrar novo estudante" style="stroke:#181818;stroke-width:1;"/><polygon fill="#181818" points="1369.04,174.41,1363.9324,165.989,1364.9342,171.5565,1359.3668,172.5583,1369.04,174.41" style="stroke:#181818;stroke-width:1;"/></g><!--link a to Modificar cadastro de estudantes--><g class="link" data-entity-1="a" data-entity-2="Modificar cadastro de estudantes" data-source-line="14" data-uid="lnk14" id="link_a_Modificar cadastro de estudantes"><path d="M86.39,158.28 C100.9,143.33 119.5,127.9 140,120 C226.16,86.79 880.89,99.85 971,120 C1014.06,129.63 1053.9465,149.0102 1085.6865,167.0902" fill="none" id="a-to-Modificar cadastro de estudantes" style="stroke:#181818;stroke-width:1;"/><polygon fill="#181818" points="1090.9,170.06,1085.0596,162.1297,1086.5554,167.5852,1081.0999,169.081,1090.9,170.06" style="stroke:#181818;stroke-width:1;"/></g><!--link a to Registrar disciplina--><g class="link" data-entity-1="a" data-entity-2="Registrar disciplina" data-source-line="15" data-uid="lnk16" id="link_a_Registrar disciplina"><path d="M105.11,196.5 C116.62,196.5 122.14,196.5 133.66,196.5" fill="none" id="a-to-Registrar disciplina" style="stroke:#181818;stroke-width:1;"/><polygon fill="#181818" points="139.66,196.5,130.66,192.5,134.66,196.5,130.66,200.5,139.66,196.5" style="stroke:#181818;stroke-width:1;"/></g><!--link a to Registrar professor respons?vel--><g class="link" data-entity-1="a" data-entity-2="Registrar professor respons.vel" data-source-line="16" data-uid="lnk18" id="link_a_Registrar professor respons.vel"><path d="M86.39,158.28 C100.9,143.33 119.5,127.9 140,120 C254.46,75.88 572.45,92.5 692,120 C734.51,129.78 773.6862,149.5747 804.4462,167.7747" fill="none" id="a-to-Registrar professor respons&#225;vel" style="stroke:#181818;stroke-width:1;"/><polygon fill="#181818" points="809.61,170.83,803.9011,162.8045,805.3068,168.2839,799.8274,169.6896,809.61,170.83" style="stroke:#181818;stroke-width:1;"/></g><!--link a to Registrar hor?rio e sala das disciplinas--><g class="link" data-entity-1="a" data-entity-2="Registrar hor.rio e sala das disciplinas" data-source-line="17" data-uid="lnk20" id="link_a_Registrar hor.rio e sala das disciplinas"><path d="M86.39,158.28 C100.9,143.33 119.5,127.9 140,120 C260.23,73.66 406.1229,126.9715 486.2829,164.7615" fill="none" id="a-to-Registrar hor&#225;rio e sala das disciplinas" style="stroke:#181818;stroke-width:1;"/><polygon fill="#181818" points="491.71,167.32,485.275,159.8641,487.1874,165.1879,481.8636,167.1003,491.71,167.32" style="stroke:#181818;stroke-width:1;"/></g><!--link Registrar disciplina to Registrar professor respons?vel--><g class="link" data-entity-1="Registrar disciplina" data-entity-2="Registrar professor respons.vel" data-source-line="18" data-uid="lnk21" id="link_Registrar disciplina_Registrar professor respons.vel"><path d="M264.23,180.68 C315.39,162.66 404.08,134.31 483,123.5 C592.92,108.45 713.8936,143.986 785.8436,170.636" fill="none" id="Registrar disciplina-to-Registrar professor respons&#225;vel" style="stroke:#181818;stroke-width:1;stroke-dasharray:7,7;"/><polygon fill="#181818" points="791.47,172.72,784.4197,165.843,786.7813,170.9833,781.641,173.3449,791.47,172.72" style="stroke:#181818;stroke-width:1;"/><text fill="#000000" font-family="sans-serif" font-size="13" lengthAdjust="spacing" textLength="63.0068" x="484" y="124.5669">&#171;include&#187;</text></g><!--link Registrar disciplina to Registrar hor?rio e sala das disciplinas--><g class="link" data-entity-1="Registrar disciplina" data-entity-2="Registrar hor.rio e sala das disciplinas" data-source-line="19" data-uid="lnk22" id="link_Registrar disciplina_Registrar hor.rio e sala das disciplinas"><path d="M303.34,196.5 C333.52,196.5 362.68,196.5 396.76,196.5" fill="none" id="Registrar disciplina-to-Registrar hor&#225;rio e sala das disciplinas" style="stroke:#181818;stroke-width:1;stroke-dasharray:7,7;"/><polygon fill="#181818" points="402.76,196.5,393.76,192.5,397.76,196.5,393.76,200.5,402.76,196.5" style="stroke:#181818;stroke-width:1;"/><text fill="#000000" font-family="sans-serif" font-size="13" lengthAdjust="spacing" textLength="63.0068" x="321.5" y="189.5669">&#171;include&#187;</text></g><!--link p to Cadastrar crit?rios de avalia??o\nde disciplinas--><g class="link" data-entity-1="p" data-entity-2="Cadastrar crit.rios de avalia..o.nde disciplinas" data-source-line="21" data-uid="lnk24" id="link_p_Cadastrar crit.rios de avalia..o.nde disciplinas"><path d="M1592.69,158.46 C1604.01,143.54 1619.08,128.09 1637,120 C1752.86,67.72 2085.02,91.96 2209,120 C2251.9,129.7 2291.5756,149.307 2322.9356,167.437" fill="none" id="p-to-Cadastrar crit&#233;rios de avalia&#231;&#227;o\nde disciplinas" style="stroke:#181818;stroke-width:1;"/><polygon fill="#181818" points="2328.13,170.44,2322.3404,162.4725,2323.8013,167.9375,2318.3364,169.3984,2328.13,170.44" style="stroke:#181818;stroke-width:1;"/></g><!--link p to Cadastrar notas de disciplinas--><g class="link" data-entity-1="p" data-entity-2="Cadastrar notas de disciplinas" data-source-line="22" data-uid="lnk26" id="link_p_Cadastrar notas de disciplinas"><path d="M1592.69,158.46 C1604.01,143.54 1619.08,128.09 1637,120 C1734.63,75.94 1772.46,101.74 1878,120 C1936.63,130.14 1994.9602,152.4015 2037.6102,171.0015" fill="none" id="p-to-Cadastrar notas de disciplinas" style="stroke:#181818;stroke-width:1;"/><polygon fill="#181818" points="2043.11,173.4,2036.4594,166.1358,2038.5269,171.4013,2033.2614,173.4688,2043.11,173.4" style="stroke:#181818;stroke-width:1;"/></g><!--link p to Calcular as notas de disciplinas--><g class="link" data-entity-1="p" data-entity-2="Calcular as notas de disciplinas" data-source-line="23" data-uid="lnk28" id="link_p_Calcular as notas de disciplinas"><path d="M1602.18,196.5 C1613.71,196.5 1619.24,196.5 1630.76,196.5" fill="none" id="p-to-Calcular as notas de disciplinas" style="stroke:#181818;stroke-width:1;"/><polygon fill="#181818" points="1636.76,196.5,1627.76,192.5,1631.76,196.5,1627.76,200.5,1636.76,196.5" style="stroke:#181818;stroke-width:1;"/></g><!--link Calcular as notas de disciplinas to Cadastrar notas de disciplinas--><g class="link" data-entity-1="Calcular as notas de disciplinas" data-entity-2="Cadastrar notas de disciplinas" data-source-line="24" data-uid="lnk29" id="link_Calcular as notas de disciplinas_Cadastrar notas de disciplinas"><path d="M1878.44,196.5 C1910.21,196.5 1938.4,196.5 1969.94,196.5" fill="none" id="Calcular as notas de disciplinas-to-Cadastrar notas de disciplinas" style="stroke:#181818;stroke-width:1;stroke-dasharray:7,7;"/><polygon fill="#181818" points="1975.94,196.5,1966.94,192.5,1970.94,196.5,1966.94,200.5,1975.94,196.5" style="stroke:#181818;stroke-width:1;"/><text fill="#000000" font-family="sans-serif" font-size="13" lengthAdjust="spacing" textLength="61.1851" x="1896.5" y="189.5669">&#171;extend&#187;</text></g><!--link e to Matricular em disciplinas--><g class="link" data-entity-1="e" data-entity-2="Matricular em disciplinas" data-source-line="26" data-uid="lnk31" id="link_e_Matricular em disciplinas"><path d="M2590.52,158.41 C2602.59,143.49 2618.49,128.04 2637,120 C2766.24,63.89 3134.79,83.97 3271,120 C3310.99,130.58 3346.6683,152.6077 3372.6383,171.2777" fill="none" id="e-to-Matricular em disciplinas" style="stroke:#181818;stroke-width:1;"/><polygon fill="#181818" points="3377.51,174.78,3372.5373,166.2787,3373.4502,171.8614,3367.8675,172.7743,3377.51,174.78" style="stroke:#181818;stroke-width:1;"/></g><!--link e to Consultar as disciplinas matriculadas--><g class="link" data-entity-1="e" data-entity-2="Consultar as disciplinas matriculadas" data-source-line="27" data-uid="lnk33" id="link_e_Consultar as disciplinas matriculadas"><path d="M2590.52,158.41 C2602.59,143.49 2618.49,128.04 2637,120 C2742.18,74.34 2781.73,102.14 2895,120 C2954.68,129.41 3014.2102,149.2553 3060.9902,167.2553" fill="none" id="e-to-Consultar as disciplinas matriculadas" style="stroke:#181818;stroke-width:1;"/><polygon fill="#181818" points="3066.59,169.41,3059.6268,162.4448,3061.9235,167.6144,3056.7539,169.9112,3066.59,169.41" style="stroke:#181818;stroke-width:1;"/></g><!--link e to Visualizar as notas das disciplinas--><g class="link" data-entity-1="e" data-entity-2="Visualizar as notas das disciplinas" data-source-line="28" data-uid="lnk35" id="link_e_Visualizar as notas das disciplinas"><path d="M2601.05,196.5 C2612.82,196.5 2618.6,196.5 2630.38,196.5" fill="none" id="e-to-Visualizar as notas das disciplinas" style="stroke:#181818;stroke-width:1;"/><polygon fill="#181818" points="2636.38,196.5,2627.38,192.5,2631.38,196.5,2627.38,200.5,2636.38,196.5" style="stroke:#181818;stroke-width:1;"/></g><!--link Visualizar as notas das disciplinas to Consultar as disciplinas matriculadas--><g class="link" data-entity-1="Visualizar as notas das disciplinas" data-entity-2="Consultar as disciplinas matriculadas" data-source-line="29" data-uid="lnk36" id="link_Visualizar as notas das disciplinas_Consultar as disciplinas matriculadas"><path d="M2894.54,196.5 C2926.03,196.5 2953.86,196.5 2985.82,196.5" fill="none" id="Visualizar as notas das disciplinas-to-Consultar as disciplinas matriculadas" style="stroke:#181818;stroke-width:1;stroke-dasharray:7,7;"/><polygon fill="#181818" points="2991.82,196.5,2982.82,192.5,2986.82,196.5,2982.82,200.5,2991.82,196.5" style="stroke:#181818;stroke-width:1;"/><text fill="#000000" font-family="sans-serif" font-size="13" lengthAdjust="spacing" textLength="61.1851" x="2912.75" y="189.5669">&#171;extend&#187;</text></g><!--SRC=[ZP9DQiCm48NtEiKicqLw01C29RIxGcbfLzqCrgGTa2MXaK89lKpeelGSlbXbAoO_3iGR8si-lJTlfEfEDsnPOa3jGWKeWAfw2cvD8liDhwfxYKcZZTHlaAfU9RMxm0wqWvTyd1hiIqaeADLzOV4zdsUnmzeVhMaFpPTmyu3Rl3BkW-rCAUptLgYnQog0THi7DFZFzlL7ftdDTQxNXSoTq06JWNkc3ouwcgLcRzZYkEQ7l118lBFIxZPanjod2oKrWQ11oCv7kjdqiX_SJd632XOBjhL9cfRBQLBN6ZhJLFvik7NWsFvb0Ud6XniqZErl- -FURVu_YUP7znAnFtMHCdKo6Sh4PUuwqYUzOjV7ewz8LdVfg3mDZ86BDZMdhWLOvP4d4ultKHsQuQG-m6yiAKzbUzBfwDgdK2NG9E-pNFy0]--></g></svg>