<svg xmlns="http://www.w3.org/2000/svg" xmlns:xlink="http://www.w3.org/1999/xlink" contentStyleType="text/css" data-diagram-type="DESCRIPTION" height="1114px" preserveAspectRatio="none" style="width:539px;height:1114px;background:#FFFFFF;" version="1.1" viewBox="0 0 539 1114" width="539px" zoomAndPan="magnify"><defs/><g><!--entity a--><g class="entity" data-entity="a" data-source-line="7" data-uid="ent0002" id="entity_a"><ellipse cx="214.41" cy="681" fill="#F1F1F1" rx="8" ry="8" style="stroke:#181818;stroke-width:0.5;"/><path d="M214.41,689 L214.41,716 M201.41,697 L227.41,697 M214.41,716 L201.41,731 M214.41,716 L227.41,731" fill="none" style="stroke:#181818;stroke-width:0.5;"/><text fill="#000000" font-family="sans-serif" font-size="14" lengthAdjust="spacing" textLength="99.0801" x="164.87" y="745.4951">Administrador</text></g><!--entity p--><g class="entity" data-entity="p" data-source-line="8" data-uid="ent0003" id="entity_p"><ellipse cx="214.4774" cy="14" fill="#F1F1F1" rx="8" ry="8" style="stroke:#181818;stroke-width:0.5;"/><path d="M214.4774,22 L214.4774,49 M201.4774,30 L227.4774,30 M214.4774,49 L201.4774,64 M214.4774,49 L227.4774,64" fill="none" style="stroke:#181818;stroke-width:0.5;"/><text fill="#000000" font-family="sans-serif" font-size="14" lengthAdjust="spacing" textLength="65.2148" x="181.87" y="78.4951">Professor</text></g><!--entity e--><g class="entity" data-entity="e" data-source-line="9" data-uid="ent0004" id="entity_e"><ellipse cx="214.3417" cy="302" fill="#F1F1F1" rx="8" ry="8" style="stroke:#181818;stroke-width:0.5;"/><path d="M214.3417,310 L214.3417,337 M201.3417,318 L227.3417,318 M214.3417,337 L201.3417,352 M214.3417,337 L227.3417,352" fill="none" style="stroke:#181818;stroke-width:0.5;"/><text fill="#000000" font-family="sans-serif" font-size="14" lengthAdjust="spacing" textLength="70.9434" x="178.87" y="366.4951">Estudante</text></g><!--entity login--><g class="entity" data-entity="login" data-source-line="11" data-uid="ent0005" id="entity_login"><ellipse cx="476.2495" cy="187.5236" fill="#F1F1F1" rx="57.3795" ry="14.5236" style="stroke:#181818;stroke-width:0.5;"/><text fill="#000000" font-family="sans-serif" font-size="14" lengthAdjust="spacing" textLength="76.9043" x="437.7974" y="192.1721">Fazer login</text></g><!--entity Cadastrar novo estudante--><g class="entity" data-entity="Cadastrar novo estudante" data-source-line="13" data-uid="ent0006" id="entity_Cadastrar novo estudante"><ellipse cx="214.3457" cy="1085.4951" fill="#F1F1F1" rx="102.9757" ry="22.9951" style="stroke:#181818;stroke-width:0.5;"/><text fill="#000000" font-family="sans-serif" font-size="14" lengthAdjust="spacing" textLength="182.5947" x="123.0483" y="1090.1436">Cadastrar novo estudante</text></g><!--entity Modificar cadastro de estudantes--><g class="entity" data-entity="Modificar cadastro de estudantes" data-source-line="14" data-uid="ent0008" id="entity_Modificar cadastro de estudantes"><ellipse cx="214.2483" cy="999.2757" fill="#F1F1F1" rx="126.8783" ry="27.7757" style="stroke:#181818;stroke-width:0.5;"/><text fill="#000000" font-family="sans-serif" font-size="14" lengthAdjust="spacing" textLength="233.9736" x="97.2615" y="1003.9241">Modificar cadastro de estudantes</text></g><!--entity Registrar professor respons?vel--><g class="entity" data-entity="Registrar professor respons.vel" data-source-line="15" data-uid="ent0010" id="entity_Registrar professor respons.vel"><ellipse cx="214.1745" cy="909.2609" fill="#F1F1F1" rx="121.8045" ry="26.7609" style="stroke:#181818;stroke-width:0.5;"/><text fill="#000000" font-family="sans-serif" font-size="14" lengthAdjust="spacing" textLength="223.2002" x="102.5744" y="913.9093">Registrar professor respons&#225;vel</text></g><!--entity Registrar hor?rio e sala das disciplinas--><g class="entity" data-entity="Registrar hor.rio e sala das disciplinas" data-source-line="16" data-uid="ent0012" id="entity_Registrar hor.rio e sala das disciplinas"><ellipse cx="214.3678" cy="815.2996" fill="#F1F1F1" rx="144.4978" ry="31.2996" style="stroke:#181818;stroke-width:0.5;"/><text fill="#000000" font-family="sans-serif" font-size="14" lengthAdjust="spacing" textLength="271.0107" x="78.8624" y="819.948">Registrar hor&#225;rio e sala das disciplinas</text></g><!--entity Cadastrar crit?rios de avalia??o\nde disciplinas--><g class="entity" data-entity="Cadastrar crit.rios de avalia..o.nde disciplinas" data-source-line="19" data-uid="ent0015" id="entity_Cadastrar crit.rios de avalia..o.nde disciplinas"><ellipse cx="214.2206" cy="230.4701" fill="#F1F1F1" rx="125.3506" ry="27.4701" style="stroke:#181818;stroke-width:0.5;"/><text fill="#000000" font-family="sans-serif" font-size="14" lengthAdjust="spacing" textLength="223.1387" x="102.6513" y="233.2232">Cadastrar crit&#233;rios de avalia&#231;&#227;o</text><text fill="#000000" font-family="sans-serif" font-size="14" lengthAdjust="spacing" textLength="95.0195" x="166.7108" y="249.5201">de disciplinas</text></g><!--entity Cadastrar notas de disciplinas--><g class="entity" data-entity="Cadastrar notas de disciplinas" data-source-line="20" data-uid="ent0017" id="entity_Cadastrar notas de disciplinas"><ellipse cx="214.1573" cy="142.6575" fill="#F1F1F1" rx="116.2873" ry="25.6575" style="stroke:#181818;stroke-width:0.5;"/><text fill="#000000" font-family="sans-serif" font-size="14" lengthAdjust="spacing" textLength="211.415" x="108.4498" y="147.3059">Cadastrar notas de disciplinas</text></g><!--entity Matricular em disciplinas--><g class="entity" data-entity="Matricular em disciplinas" data-source-line="23" data-uid="ent0020" id="entity_Matricular em disciplinas"><ellipse cx="214.3036" cy="614.2867" fill="#F1F1F1" rx="99.4336" ry="22.2867" style="stroke:#181818;stroke-width:0.5;"/><text fill="#000000" font-family="sans-serif" font-size="14" lengthAdjust="spacing" textLength="174.8086" x="126.8993" y="618.9352">Matricular em disciplinas</text></g><!--entity Consultar as disciplinas matriculadas--><g class="entity" data-entity="Consultar as disciplinas matriculadas" data-source-line="24" data-uid="ent0022" id="entity_Consultar as disciplinas matriculadas"><ellipse cx="214.3616" cy="526.2983" fill="#F1F1F1" rx="139.4916" ry="30.2983" style="stroke:#181818;stroke-width:0.5;"/><text fill="#000000" font-family="sans-serif" font-size="14" lengthAdjust="spacing" textLength="260.5381" x="84.0925" y="530.9468">Consultar as disciplinas matriculadas</text></g><!--entity Visualizar as notas das disciplinas--><g class="entity" data-entity="Visualizar as notas das disciplinas" data-source-line="25" data-uid="ent0024" id="entity_Visualizar as notas das disciplinas"><ellipse cx="214.1416" cy="432.6543" fill="#F1F1F1" rx="128.7716" ry="28.1543" style="stroke:#181818;stroke-width:0.5;"/><text fill="#000000" font-family="sans-serif" font-size="14" lengthAdjust="spacing" textLength="237.9795" x="95.1518" y="437.3027">Visualizar as notas das disciplinas</text></g><!--link a to Cadastrar novo estudante--><g class="link" data-entity-1="a" data-entity-2="Cadastrar novo estudante" data-source-line="13" data-uid="lnk7" id="link_a_Cadastrar novo estudante"><path d="M164.52,715.44 C122.36,722.65 64.92,740.39 39.87,784 C12.98,830.83 12.98,980.17 39.87,1027 C55.86,1054.85 80.3787,1068.3473 111.3287,1076.2973" fill="none" id="a-to-Cadastrar novo estudante" style="stroke:#181818;stroke-width:1;"/><polygon fill="#181818" points="117.14,1077.79,109.4181,1071.6767,112.2972,1076.5461,107.4278,1079.4251,117.14,1077.79" style="stroke:#181818;stroke-width:1;"/></g><!--link a to Modificar cadastro de estudantes--><g class="link" data-entity-1="a" data-entity-2="Modificar cadastro de estudantes" data-source-line="14" data-uid="lnk9" id="link_a_Modificar cadastro de estudantes"><path d="M164.52,715.44 C122.36,722.65 64.92,740.39 39.87,784 C6.22,842.58 6.22,877.42 39.87,936 C53.92,960.46 73.0902,973.6284 99.6902,982.9884" fill="none" id="a-to-Modificar cadastro de estudantes" style="stroke:#181818;stroke-width:1;"/><polygon fill="#181818" points="105.35,984.98,98.188,978.2194,100.6335,983.3204,95.5325,985.7659,105.35,984.98" style="stroke:#181818;stroke-width:1;"/></g><!--link a to Registrar professor respons?vel--><g class="link" data-entity-1="a" data-entity-2="Registrar professor respons.vel" data-source-line="15" data-uid="lnk11" id="link_a_Registrar professor respons.vel"><path d="M164.52,715.44 C122.36,722.65 64.92,740.39 39.87,784 C25.93,808.28 25.93,822.72 39.87,847 C54.3,872.11 74.4567,885.3964 101.9067,894.5264" fill="none" id="a-to-Registrar professor respons&#225;vel" style="stroke:#181818;stroke-width:1;"/><polygon fill="#181818" points="107.6,896.42,100.3224,889.784,102.8555,894.842,97.7976,897.3751,107.6,896.42" style="stroke:#181818;stroke-width:1;"/></g><!--link a to Registrar hor?rio e sala das disciplinas--><g class="link" data-entity-1="a" data-entity-2="Registrar hor.rio e sala das disciplinas" data-source-line="16" data-uid="lnk13" id="link_a_Registrar hor.rio e sala das disciplinas"><path d="M214.37,748.64 C214.37,760.4 214.37,766.16 214.37,777.92" fill="none" id="a-to-Registrar hor&#225;rio e sala das disciplinas" style="stroke:#181818;stroke-width:1;"/><polygon fill="#181818" points="214.37,783.92,218.37,774.92,214.37,778.92,210.37,774.92,214.37,783.92" style="stroke:#181818;stroke-width:1;"/></g><!--link p to login--><g class="link" data-entity-1="p" data-entity-2="login" data-source-line="18" data-uid="lnk14" id="link_p_login"><path d="M247,53.05 C276.84,62.7 322.33,79.09 358.87,99.5 C397.82,121.26 433.7619,150.742 455.2419,169.512" fill="none" id="p-to-login" style="stroke:#181818;stroke-width:1;"/><polygon fill="#181818" points="459.76,173.46,455.6149,164.5259,455.9949,170.17,450.3509,170.55,459.76,173.46" style="stroke:#181818;stroke-width:1;"/></g><!--link p to Cadastrar crit?rios de avalia??o\nde disciplinas--><g class="link" data-entity-1="p" data-entity-2="Cadastrar crit.rios de avalia..o.nde disciplinas" data-source-line="19" data-uid="lnk16" id="link_p_Cadastrar crit.rios de avalia..o.nde disciplinas"><path d="M181.62,45.94 C139.55,51.09 68.52,67.12 39.87,117 C28.58,136.66 28.58,148.34 39.87,168 C53.9,192.42 73.0502,205.4769 99.6502,214.6869" fill="none" id="p-to-Cadastrar crit&#233;rios de avalia&#231;&#227;o\nde disciplinas" style="stroke:#181818;stroke-width:1;"/><polygon fill="#181818" points="105.32,216.65,98.1241,209.9255,100.5952,215.0141,95.5066,217.4852,105.32,216.65" style="stroke:#181818;stroke-width:1;"/></g><!--link p to Cadastrar notas de disciplinas--><g class="link" data-entity-1="p" data-entity-2="Cadastrar notas de disciplinas" data-source-line="20" data-uid="lnk18" id="link_p_Cadastrar notas de disciplinas"><path d="M214.37,81.67 C214.37,93.44 214.37,99.21 214.37,110.98" fill="none" id="p-to-Cadastrar notas de disciplinas" style="stroke:#181818;stroke-width:1;"/><polygon fill="#181818" points="214.37,116.98,218.37,107.98,214.37,111.98,210.37,107.98,214.37,116.98" style="stroke:#181818;stroke-width:1;"/></g><!--link e to login--><g class="link" data-entity-1="e" data-entity-2="login" data-source-line="22" data-uid="lnk19" id="link_e_login"><path d="M249.9,321 C279.74,311.25 323.5,295.26 358.87,275.5 C397.82,253.74 433.7619,224.258 455.2419,205.488" fill="none" id="e-to-login" style="stroke:#181818;stroke-width:1;"/><polygon fill="#181818" points="459.76,201.54,450.3509,204.45,455.9949,204.83,455.6149,210.4741,459.76,201.54" style="stroke:#181818;stroke-width:1;"/></g><!--link e to Matricular em disciplinas--><g class="link" data-entity-1="e" data-entity-2="Matricular em disciplinas" data-source-line="23" data-uid="lnk21" id="link_e_Matricular em disciplinas"><path d="M178.67,334.08 C136.28,339.35 67.81,355.36 39.87,404 C6,462.97 6,498.03 39.87,557 C56.16,585.35 81.5377,598.8113 113.1277,606.4413" fill="none" id="e-to-Matricular em disciplinas" style="stroke:#181818;stroke-width:1;"/><polygon fill="#181818" points="118.96,607.85,111.1507,601.8488,114.0998,606.6761,109.2724,609.6252,118.96,607.85" style="stroke:#181818;stroke-width:1;"/></g><!--link e to Consultar as disciplinas matriculadas--><g class="link" data-entity-1="e" data-entity-2="Consultar as disciplinas matriculadas" data-source-line="24" data-uid="lnk23" id="link_e_Consultar as disciplinas matriculadas"><path d="M178.67,334.08 C136.28,339.35 67.81,355.36 39.87,404 C27.47,425.58 27.47,438.42 39.87,460 C53.27,483.33 70.7487,496.3278 95.7887,506.2078" fill="none" id="e-to-Consultar as disciplinas matriculadas" style="stroke:#181818;stroke-width:1;"/><polygon fill="#181818" points="101.37,508.41,94.4662,501.3859,96.719,506.5748,91.53,508.8276,101.37,508.41" style="stroke:#181818;stroke-width:1;"/></g><!--link e to Visualizar as notas das disciplinas--><g class="link" data-entity-1="e" data-entity-2="Visualizar as notas das disciplinas" data-source-line="25" data-uid="lnk25" id="link_e_Visualizar as notas das disciplinas"><path d="M214.37,369.7 C214.37,381.3 214.37,386.89 214.37,398.49" fill="none" id="e-to-Visualizar as notas das disciplinas" style="stroke:#181818;stroke-width:1;"/><polygon fill="#181818" points="214.37,404.49,218.37,395.49,214.37,399.49,210.37,395.49,214.37,404.49" style="stroke:#181818;stroke-width:1;"/></g><!--SRC=[PP0nRiCm34LtdOAZC-G27We4GRiLA5gWKnT2OXoYiYY8Segcw6623aNFuOjLZcq4JZQRVF_pVtdQPSW2YPjz1iU9R6O9HjyvH4pOGgTaKGc-3C36Paal-TCJu0Ufj6I-ZQathkN0cXCwIJMW0fhwAScELAT1DFMzvivXo7GUa37L0nufWPU6msgOLUEdCGZhEwYsw70mJH3a842pVZNj7yNnZctPsv4KS7J1TEQUgU7H9ywP89562TgV3kHlkRsa_fIut0H5Zr3SozkevUWvO34s4TQ3P0eSh_BQnBd_AmOw9C83UiR-j_-Hjr3-5qxnfch6isfvZnRtQEoFER7jV55Hk-H7O5iQTZwN_J8_jBFINU1NrgxaF8xq5EEwzpy0]--></g></svg>