<svg xmlns="http://www.w3.org/2000/svg" xmlns:xlink="http://www.w3.org/1999/xlink" contentStyleType="text/css" data-diagram-type="DESCRIPTION" height="144px" preserveAspectRatio="none" style="width:1250px;height:144px;background:#FFFFFF;" version="1.1" viewBox="0 0 1250 144" width="1250px" zoomAndPan="magnify"><defs/><g><!--entity a--><g class="entity" data-entity="a" data-source-line="2" data-uid="ent0002" id="entity_a"><ellipse cx="55.54" cy="71.09" fill="#F1F1F1" rx="8" ry="8" style="stroke:#181818;stroke-width:0.5;"/><path d="M55.54,79.09 L55.54,106.09 M42.54,87.09 L68.54,87.09 M55.54,106.09 L42.54,121.09 M55.54,106.09 L68.54,121.09" fill="none" style="stroke:#181818;stroke-width:0.5;"/><text fill="#000000" font-family="sans-serif" font-size="14" lengthAdjust="spacing" textLength="99.0801" x="6" y="135.5851">Administrador</text></g><!--entity f--><g class="entity" data-entity="f" data-source-line="3" data-uid="ent0003" id="entity_f"><ellipse cx="748.3071" cy="71.09" fill="#F1F1F1" rx="8" ry="8" style="stroke:#181818;stroke-width:0.5;"/><path d="M748.3071,79.09 L748.3071,106.09 M735.3071,87.09 L761.3071,87.09 M748.3071,106.09 L735.3071,121.09 M748.3071,106.09 L761.3071,121.09" fill="none" style="stroke:#181818;stroke-width:0.5;"/><text fill="#000000" font-family="sans-serif" font-size="14" lengthAdjust="spacing" textLength="81.6143" x="707.5" y="135.5851">Funcion&#225;rio</text></g><!--entity c--><g class="entity" data-entity="c" data-source-line="4" data-uid="ent0004" id="entity_c"><ellipse cx="1030.5718" cy="71.09" fill="#F1F1F1" rx="8" ry="8" style="stroke:#181818;stroke-width:0.5;"/><path d="M1030.5718,79.09 L1030.5718,106.09 M1017.5718,87.09 L1043.5718,87.09 M1030.5718,106.09 L1017.5718,121.09 M1030.5718,106.09 L1043.5718,121.09" fill="none" style="stroke:#181818;stroke-width:0.5;"/><text fill="#000000" font-family="sans-serif" font-size="14" lengthAdjust="spacing" textLength="49.1436" x="1006" y="135.5851">Cliente</text></g><!--entity Registrar sala--><g class="entity" data-entity="Registrar sala" data-source-line="6" data-uid="ent0005" id="entity_Registrar sala"><ellipse cx="605.2588" cy="100.7418" fill="#F1F1F1" rx="66.2588" ry="15.6518" style="stroke:#181818;stroke-width:0.5;"/><text fill="#000000" font-family="sans-serif" font-size="14" lengthAdjust="spacing" textLength="96.7832" x="556.8672" y="105.3902">Registrar sala</text></g><!--entity Cadastrar novo filme--><g class="entity" data-entity="Cadastrar novo filme" data-source-line="7" data-uid="ent0007" id="entity_Cadastrar novo filme"><ellipse cx="416.468" cy="100.3836" fill="#F1F1F1" rx="86.968" ry="19.7936" style="stroke:#181818;stroke-width:0.5;"/><text fill="#000000" font-family="sans-serif" font-size="14" lengthAdjust="spacing" textLength="146.8428" x="343.0466" y="105.032">Cadastrar novo filme</text></g><!--entity Registrar sess?es--><g class="entity" data-entity="Registrar sess.es" data-source-line="8" data-uid="ent0009" id="entity_Registrar sess.es"><ellipse cx="217.4417" cy="100.3783" fill="#F1F1F1" rx="76.9417" ry="17.7883" style="stroke:#181818;stroke-width:0.5;"/><text fill="#000000" font-family="sans-serif" font-size="14" lengthAdjust="spacing" textLength="123.4092" x="155.7372" y="105.0268">Registrar sess&#245;es</text></g><!--entity Vender ingresso--><g class="entity" data-entity="Vender ingresso" data-source-line="10" data-uid="ent0011" id="entity_Vender ingresso"><ellipse cx="897.5399" cy="100.598" fill="#F1F1F1" rx="73.0399" ry="17.008" style="stroke:#181818;stroke-width:0.5;"/><text fill="#000000" font-family="sans-serif" font-size="14" lengthAdjust="spacing" textLength="113.9414" x="840.5692" y="105.2464">Vender ingresso</text></g><!--entity Comprar ingresso--><g class="entity" data-entity="Comprar ingresso" data-source-line="12" data-uid="ent0013" id="entity_Comprar ingresso"><ellipse cx="1167.4302" cy="100.476" fill="#F1F1F1" rx="77.4302" ry="17.886" style="stroke:#181818;stroke-width:0.5;"/><text fill="#000000" font-family="sans-serif" font-size="14" lengthAdjust="spacing" textLength="124.5781" x="1105.1411" y="105.1245">Comprar ingresso</text></g><!--link a to Registrar sala--><g class="link" data-entity-1="a" data-entity-2="Registrar sala" data-source-line="6" data-uid="lnk6" id="link_a_Registrar sala"><path d="M92.11,62.58 C106.13,50.59 123.09,38.84 141,32.59 C217.16,6 426.82,9.13 504,32.59 C537.89,42.89 566.2783,64.7007 585.0283,81.3907" fill="none" id="a-to-Registrar sala" style="stroke:#181818;stroke-width:1;"/><polygon fill="#181818" points="589.51,85.38,585.447,76.4083,585.7753,82.0556,580.1279,82.3838,589.51,85.38" style="stroke:#181818;stroke-width:1;"/></g><!--link a to Cadastrar novo filme--><g class="link" data-entity-1="a" data-entity-2="Cadastrar novo filme" data-source-line="7" data-uid="lnk8" id="link_a_Cadastrar novo filme"><path d="M92.11,62.58 C106.13,50.59 123.09,38.84 141,32.59 C205.62,10.03 228.77,15.32 295,32.59 C331.02,41.98 362.77,61.2173 386.26,77.8173" fill="none" id="a-to-Cadastrar novo filme" style="stroke:#181818;stroke-width:1;"/><polygon fill="#181818" points="391.16,81.28,386.1185,72.8193,387.0767,78.3944,381.5016,79.3526,391.16,81.28" style="stroke:#181818;stroke-width:1;"/></g><!--link a to Registrar sess?es--><g class="link" data-entity-1="a" data-entity-2="Registrar sess.es" data-source-line="8" data-uid="lnk10" id="link_a_Registrar sess.es"><path d="M105.18,100.59 C116.88,100.59 122.58,100.59 134.28,100.59" fill="none" id="a-to-Registrar sess&#245;es" style="stroke:#181818;stroke-width:1;"/><polygon fill="#181818" points="140.28,100.59,131.28,96.59,135.28,100.59,131.28,104.59,140.28,100.59" style="stroke:#181818;stroke-width:1;"/></g><!--link f to Vender ingresso--><g class="link" data-entity-1="f" data-entity-2="Vender ingresso" data-source-line="10" data-uid="lnk12" id="link_f_Vender ingresso"><path d="M789.53,100.59 C801.06,100.59 806.59,100.59 818.12,100.59" fill="none" id="f-to-Vender ingresso" style="stroke:#181818;stroke-width:1;"/><polygon fill="#181818" points="824.12,100.59,815.12,96.59,819.12,100.59,815.12,104.59,824.12,100.59" style="stroke:#181818;stroke-width:1;"/></g><!--link c to Comprar ingresso--><g class="link" data-entity-1="c" data-entity-2="Comprar ingresso" data-source-line="12" data-uid="lnk14" id="link_c_Comprar ingresso"><path d="M1055.12,100.59 C1066.68,100.59 1072.24,100.59 1083.8,100.59" fill="none" id="c-to-Comprar ingresso" style="stroke:#181818;stroke-width:1;"/><polygon fill="#181818" points="1089.8,100.59,1080.8,96.59,1084.8,100.59,1080.8,104.59,1089.8,100.59" style="stroke:#181818;stroke-width:1;"/></g><!--SRC=[POmn3i8m34Ltdy8Z6RX01YHKYGCmi5k9KrbgR1GNxiCXE44lrf8YCJ3-z_H-FESgAZutojOYaYD1l3mqYUdoQcAT5OZ39Ampzva028ydF5nvx6r3fud2bmwKQQTgJyCYK-NmNx3xycOF0AMh6slcXg9ZsvHjFErtLk-Vu2TM]--></g></svg>