<svg xmlns="http://www.w3.org/2000/svg" xmlns:xlink="http://www.w3.org/1999/xlink" contentStyleType="text/css" data-diagram-type="DESCRIPTION" height="164px" preserveAspectRatio="none" style="width:2530px;height:164px;background:#FFFFFF;" version="1.1" viewBox="0 0 2530 164" width="2530px" zoomAndPan="magnify"><defs/><g><!--entity a--><g class="entity" data-entity="a" data-source-line="2" data-uid="ent0002" id="entity_a"><ellipse cx="2474.04" cy="91.33" fill="#F1F1F1" rx="8" ry="8" style="stroke:#181818;stroke-width:0.5;"/><path d="M2474.04,99.33 L2474.04,126.33 M2461.04,107.33 L2487.04,107.33 M2474.04,126.33 L2461.04,141.33 M2474.04,126.33 L2487.04,141.33" fill="none" style="stroke:#181818;stroke-width:0.5;"/><text fill="#000000" font-family="sans-serif" font-size="14" lengthAdjust="spacing" textLength="99.0801" x="2424.5" y="155.8251">Administrador</text></g><!--entity f--><g class="entity" data-entity="f" data-source-line="3" data-uid="ent0003" id="entity_f"><ellipse cx="46.8071" cy="91.33" fill="#F1F1F1" rx="8" ry="8" style="stroke:#181818;stroke-width:0.5;"/><path d="M46.8071,99.33 L46.8071,126.33 M33.8071,107.33 L59.8071,107.33 M46.8071,126.33 L33.8071,141.33 M46.8071,126.33 L59.8071,141.33" fill="none" style="stroke:#181818;stroke-width:0.5;"/><text fill="#000000" font-family="sans-serif" font-size="14" lengthAdjust="spacing" textLength="81.6143" x="6" y="155.8251">Funcion&#225;rio</text></g><!--entity h--><g class="entity" data-entity="h" data-source-line="4" data-uid="ent0004" id="entity_h"><ellipse cx="1471.1934" cy="91.33" fill="#F1F1F1" rx="8" ry="8" style="stroke:#181818;stroke-width:0.5;"/><path d="M1471.1934,99.33 L1471.1934,126.33 M1458.1934,107.33 L1484.1934,107.33 M1471.1934,126.33 L1458.1934,141.33 M1471.1934,126.33 L1484.1934,141.33" fill="none" style="stroke:#181818;stroke-width:0.5;"/><text fill="#000000" font-family="sans-serif" font-size="14" lengthAdjust="spacing" textLength="61.3867" x="1440.5" y="155.8251">H&#243;spede</text></g><!--entity Cadastrar h?spede--><g class="entity" data-entity="Cadastrar h.spede" data-source-line="6" data-uid="ent0005" id="entity_Cadastrar h.spede"><ellipse cx="1323.9359" cy="120.9172" fill="#F1F1F1" rx="80.9359" ry="18.5872" style="stroke:#181818;stroke-width:0.5;"/><text fill="#000000" font-family="sans-serif" font-size="14" lengthAdjust="spacing" textLength="132.877" x="1257.4974" y="125.5656">Cadastrar h&#243;spede</text></g><!--entity Alugar quarto na chegada--><g class="entity" data-entity="Alugar quarto na chegada" data-source-line="7" data-uid="ent0007" id="entity_Alugar quarto na chegada"><ellipse cx="1104.9913" cy="120.8283" fill="#F1F1F1" rx="102.9913" ry="22.9983" style="stroke:#181818;stroke-width:0.5;"/><text fill="#000000" font-family="sans-serif" font-size="14" lengthAdjust="spacing" textLength="182.6289" x="1013.6768" y="125.4767">Alugar quarto na chegada</text></g><!--entity Registrar reserva de quarto--><g class="entity" data-entity="Registrar reserva de quarto" data-source-line="8" data-uid="ent0009" id="entity_Registrar reserva de quarto"><ellipse cx="859.1572" cy="120.8614" fill="#F1F1F1" rx="108.1572" ry="24.0314" style="stroke:#181818;stroke-width:0.5;"/><text fill="#000000" font-family="sans-serif" font-size="14" lengthAdjust="spacing" textLength="193.8877" x="762.2133" y="125.5099">Registrar reserva de quarto</text></g><!--entity Registrar servi?os adicionais--><g class="entity" data-entity="Registrar servi.os adicionais" data-source-line="9" data-uid="ent0011" id="entity_Registrar servi.os adicionais"><ellipse cx="605.1801" cy="120.966" fill="#F1F1F1" rx="111.1801" ry="24.636" style="stroke:#181818;stroke-width:0.5;"/><text fill="#000000" font-family="sans-serif" font-size="14" lengthAdjust="spacing" textLength="200.4297" x="504.9653" y="125.6145">Registrar servi&#231;os adicionais</text></g><!--entity Gerar fatura--><g class="entity" data-entity="Gerar fatura" data-source-line="10" data-uid="ent0013" id="entity_Gerar fatura"><ellipse cx="395.8117" cy="120.6923" fill="#F1F1F1" rx="62.3117" ry="14.8623" style="stroke:#181818;stroke-width:0.5;"/><text fill="#000000" font-family="sans-serif" font-size="14" lengthAdjust="spacing" textLength="86.208" x="352.7077" y="125.3408">Gerar fatura</text></g><!--entity Registrar pagamento--><g class="entity" data-entity="Registrar pagamento" data-source-line="11" data-uid="ent0015" id="entity_Registrar pagamento"><ellipse cx="211.2162" cy="120.7732" fill="#F1F1F1" rx="87.7162" ry="19.9432" style="stroke:#181818;stroke-width:0.5;"/><text fill="#000000" font-family="sans-serif" font-size="14" lengthAdjust="spacing" textLength="148.5518" x="136.9403" y="125.4217">Registrar pagamento</text></g><!--entity Reservar quarto pela internet--><g class="entity" data-entity="Reservar quarto pela internet" data-source-line="13" data-uid="ent0017" id="entity_Reservar quarto pela internet"><ellipse cx="2275.0511" cy="120.6402" fill="#F1F1F1" rx="114.5511" ry="25.3102" style="stroke:#181818;stroke-width:0.5;"/><text fill="#000000" font-family="sans-serif" font-size="14" lengthAdjust="spacing" textLength="207.6895" x="2171.2064" y="125.2887">Reservar quarto pela internet</text></g><!--entity Solicitar servi?os--><g class="entity" data-entity="Solicitar servi.os" data-source-line="14" data-uid="ent0019" id="entity_Solicitar servi.os"><ellipse cx="2049.9009" cy="120.7102" fill="#F1F1F1" rx="74.9009" ry="17.3802" style="stroke:#181818;stroke-width:0.5;"/><text fill="#000000" font-family="sans-serif" font-size="14" lengthAdjust="spacing" textLength="118.4873" x="1990.6572" y="125.3586">Solicitar servi&#231;os</text></g><!--entity Quitar fatura semanalmente--><g class="entity" data-entity="Quitar fatura semanalmente" data-source-line="15" data-uid="ent0021" id="entity_Quitar fatura semanalmente"><ellipse cx="1829.2054" cy="120.8711" fill="#F1F1F1" rx="110.7054" ry="24.5411" style="stroke:#181818;stroke-width:0.5;"/><text fill="#000000" font-family="sans-serif" font-size="14" lengthAdjust="spacing" textLength="199.4043" x="1729.5032" y="125.5195">Quitar fatura semanalmente</text></g><!--entity Encerrar estadia--><g class="entity" data-entity="Encerrar estadia" data-source-line="16" data-uid="ent0023" id="entity_Encerrar estadia"><ellipse cx="1610.2395" cy="120.9779" fill="#F1F1F1" rx="73.7395" ry="17.1479" style="stroke:#181818;stroke-width:0.5;"/><text fill="#000000" font-family="sans-serif" font-size="14" lengthAdjust="spacing" textLength="115.6572" x="1552.4109" y="125.6263">Encerrar estadia</text></g><!--link f to Cadastrar h?spede--><g class="link" data-entity-1="f" data-entity-2="Cadastrar h.spede" data-source-line="6" data-uid="lnk6" id="link_f_Cadastrar h.spede"><path d="M79.47,82.53 C91.89,70.67 107.06,59.08 123.5,52.83 C236.19,9.99 1092.19,21.13 1208.5,52.83 C1243.97,62.5 1274.8586,82.5186 1296.9886,99.1986" fill="none" id="f-to-Cadastrar h&#243;spede" style="stroke:#181818;stroke-width:1;"/><polygon fill="#181818" points="1301.78,102.81,1297.0005,94.1986,1297.7872,99.8005,1292.1853,100.5871,1301.78,102.81" style="stroke:#181818;stroke-width:1;"/></g><!--link f to Alugar quarto na chegada--><g class="link" data-entity-1="f" data-entity-2="Alugar quarto na chegada" data-source-line="7" data-uid="lnk8" id="link_f_Alugar quarto na chegada"><path d="M79.47,82.53 C91.89,70.67 107.06,59.08 123.5,52.83 C211.16,19.5 876.18,31.48 967.5,52.83 C1005.49,61.71 1039.9018,79.5853 1066.7718,95.9053" fill="none" id="f-to-Alugar quarto na chegada" style="stroke:#181818;stroke-width:1;"/><polygon fill="#181818" points="1071.9,99.02,1066.2842,90.9291,1067.6265,96.4244,1062.1312,97.7667,1071.9,99.02" style="stroke:#181818;stroke-width:1;"/></g><!--link f to Registrar reserva de quarto--><g class="link" data-entity-1="f" data-entity-2="Registrar reserva de quarto" data-source-line="8" data-uid="lnk10" id="link_f_Registrar reserva de quarto"><path d="M79.47,82.53 C91.89,70.67 107.06,59.08 123.5,52.83 C246.68,6 587.97,23.74 716.5,52.83 C755,61.55 790.083,78.9542 817.963,95.1642" fill="none" id="f-to-Registrar reserva de quarto" style="stroke:#181818;stroke-width:1;"/><polygon fill="#181818" points="823.15,98.18,817.3801,90.1983,818.8275,95.6668,813.359,97.1143,823.15,98.18" style="stroke:#181818;stroke-width:1;"/></g><!--link f to Registrar servi?os adicionais--><g class="link" data-entity-1="f" data-entity-2="Registrar servi.os adicionais" data-source-line="9" data-uid="lnk12" id="link_f_Registrar servi.os adicionais"><path d="M79.47,82.53 C91.89,70.67 107.06,59.08 123.5,52.83 C193.08,26.37 385.81,36.78 458.5,52.83 C497.52,61.44 533.2604,78.5986 561.9204,94.7186" fill="none" id="f-to-Registrar servi&#231;os adicionais" style="stroke:#181818;stroke-width:1;"/><polygon fill="#181818" points="567.15,97.66,561.2666,89.7615,562.792,95.2088,557.3447,96.7343,567.15,97.66" style="stroke:#181818;stroke-width:1;"/></g><!--link f to Gerar fatura--><g class="link" data-entity-1="f" data-entity-2="Gerar fatura" data-source-line="10" data-uid="lnk14" id="link_f_Gerar fatura"><path d="M79.47,82.53 C91.89,70.67 107.06,59.08 123.5,52.83 C196.2,25.19 224.3,29.51 298.5,52.83 C331.77,63.29 359.2306,85.4687 377.0206,102.1287" fill="none" id="f-to-Gerar fatura" style="stroke:#181818;stroke-width:1;"/><polygon fill="#181818" points="381.4,106.23,377.565,97.1585,377.7505,102.8123,372.0966,102.9977,381.4,106.23" style="stroke:#181818;stroke-width:1;"/></g><!--link f to Registrar pagamento--><g class="link" data-entity-1="f" data-entity-2="Registrar pagamento" data-source-line="11" data-uid="lnk16" id="link_f_Registrar pagamento"><path d="M88.32,120.83 C99.98,120.83 105.64,120.83 117.3,120.83" fill="none" id="f-to-Registrar pagamento" style="stroke:#181818;stroke-width:1;"/><polygon fill="#181818" points="123.3,120.83,114.3,116.83,118.3,120.83,114.3,124.83,123.3,120.83" style="stroke:#181818;stroke-width:1;"/></g><!--link h to Reservar quarto pela internet--><g class="link" data-entity-1="h" data-entity-2="Reservar quarto pela internet" data-source-line="13" data-uid="lnk18" id="link_h_Reservar quarto pela internet"><path d="M1497.84,82.64 C1508.39,70.79 1521.57,59.18 1536.5,52.83 C1596.73,27.22 2061.54,38.97 2125.5,52.83 C2164.51,61.29 2200.307,77.9488 2229.497,93.9288" fill="none" id="h-to-Reservar quarto pela internet" style="stroke:#181818;stroke-width:1;"/><polygon fill="#181818" points="2234.76,96.81,2228.7864,88.9796,2230.3742,94.409,2224.9448,95.9968,2234.76,96.81" style="stroke:#181818;stroke-width:1;"/></g><!--link h to Solicitar servi?os--><g class="link" data-entity-1="h" data-entity-2="Solicitar servi.os" data-source-line="14" data-uid="lnk20" id="link_h_Solicitar servi.os"><path d="M1497.84,82.64 C1508.39,70.79 1521.57,59.18 1536.5,52.83 C1618.91,17.79 1853.33,28.44 1939.5,52.83 C1974.4,62.71 2004.4085,83.3198 2025.3685,100.0298" fill="none" id="h-to-Solicitar servi&#231;os" style="stroke:#181818;stroke-width:1;"/><polygon fill="#181818" points="2030.06,103.77,2025.5162,95.0319,2026.1504,100.6531,2020.5292,101.2873,2030.06,103.77" style="stroke:#181818;stroke-width:1;"/></g><!--link h to Quitar fatura semanalmente--><g class="link" data-entity-1="h" data-entity-2="Quitar fatura semanalmente" data-source-line="15" data-uid="lnk22" id="link_h_Quitar fatura semanalmente"><path d="M1497.84,82.64 C1508.39,70.79 1521.57,59.18 1536.5,52.83 C1596.62,27.26 1619.72,38.66 1683.5,52.83 C1722.29,61.45 1757.7597,78.5822 1786.2097,94.7022" fill="none" id="h-to-Quitar fatura semanalmente" style="stroke:#181818;stroke-width:1;"/><polygon fill="#181818" points="1791.43,97.66,1785.5715,89.7431,1787.0798,95.1951,1781.6277,96.7034,1791.43,97.66" style="stroke:#181818;stroke-width:1;"/></g><!--link h to Encerrar estadia--><g class="link" data-entity-1="h" data-entity-2="Encerrar estadia" data-source-line="16" data-uid="lnk24" id="link_h_Encerrar estadia"><path d="M1501.68,120.83 C1513.24,120.83 1518.81,120.83 1530.37,120.83" fill="none" id="h-to-Encerrar estadia" style="stroke:#181818;stroke-width:1;"/><polygon fill="#181818" points="1536.37,120.83,1527.37,116.83,1531.37,120.83,1527.37,124.83,1536.37,120.83" style="stroke:#181818;stroke-width:1;"/></g><!--SRC=[ROunRiCm34LtdO9ZFFG27W8OHPgiIKv0MBHDmAOSIkfzEkK0EO8lLicHWm3jIBv7_bytTc9X7nIjqnhG0vhwAqhBJfOVPRVkEbEVbeUVoT8w3yPqyB67tITQpCSAG-5L8SqO-xI-HTJWG13QWVfaR_n2FJylbJpfDuAbOlzLii3BtQLsbdCrPBzPHyf6Xo7gFyzdx74YoK_DKDWQzwesquZ04aY5GbMagnjJJdYFtj0vhljdOC8J2euvWZRZ82rf3YSVKj_KwXS0]--></g></svg>